%FSTAX23Y23*%
%MOIN*%
%SFA1B1*%

%IPPOS*%
%ADD19C,0.010000*%
%ADD30C,0.009840*%
%ADD31C,0.023620*%
%ADD32C,0.007870*%
%ADD33C,0.005000*%
%ADD34C,0.004000*%
%LNdrv8825_printplaat-1*%
%LPD*%
G54D19*
X001Y00788D02*
X00301D01*
Y00587D02*
Y00788D01*
X001Y00587D02*
Y00788D01*
Y00587D02*
X00301D01*
G54D30*
X00497Y00369D02*
D01*
X00497Y0037*
X00497Y0037*
X00497Y0037*
X00497Y00371*
X00497Y00371*
X00496Y00371*
X00496Y00372*
X00496Y00372*
X00496Y00372*
X00496Y00372*
X00495Y00373*
X00495Y00373*
X00495Y00373*
X00495Y00373*
X00494Y00373*
X00494Y00374*
X00494Y00374*
X00493Y00374*
X00493Y00374*
X00493Y00374*
X00492Y00374*
X00492Y00374*
X00492*
X00491Y00374*
X00491Y00374*
X00491Y00374*
X0049Y00374*
X0049Y00374*
X0049Y00374*
X00489Y00373*
X00489Y00373*
X00489Y00373*
X00489Y00373*
X00488Y00373*
X00488Y00372*
X00488Y00372*
X00488Y00372*
X00488Y00372*
X00487Y00371*
X00487Y00371*
X00487Y00371*
X00487Y0037*
X00487Y0037*
X00487Y0037*
X00487Y00369*
X00487Y00369*
X00487Y00369*
X00487Y00368*
X00487Y00368*
X00487Y00368*
X00487Y00367*
X00488Y00367*
X00488Y00367*
X00488Y00366*
X00488Y00366*
X00488Y00366*
X00489Y00366*
X00489Y00365*
X00489Y00365*
X00489Y00365*
X0049Y00365*
X0049Y00365*
X0049Y00365*
X00491Y00364*
X00491Y00364*
X00491Y00364*
X00492Y00364*
X00492*
X00492Y00364*
X00493Y00364*
X00493Y00364*
X00493Y00365*
X00494Y00365*
X00494Y00365*
X00494Y00365*
X00495Y00365*
X00495Y00365*
X00495Y00366*
X00495Y00366*
X00496Y00366*
X00496Y00366*
X00496Y00367*
X00496Y00367*
X00496Y00367*
X00497Y00368*
X00497Y00368*
X00497Y00368*
X00497Y00369*
X00497Y00369*
X00497Y00369*
G54D31*
X00462Y00281D02*
D01*
X00462Y00281*
X00462Y00282*
X00462Y00283*
X00462Y00284*
X00462Y00285*
X00461Y00285*
X00461Y00286*
X00461Y00287*
X0046Y00288*
X0046Y00288*
X00459Y00289*
X00458Y00289*
X00458Y0029*
X00457Y0029*
X00456Y00291*
X00456Y00291*
X00455Y00292*
X00454Y00292*
X00453Y00292*
X00453Y00292*
X00452Y00292*
X00451Y00292*
X0045*
X00449Y00292*
X00448Y00292*
X00448Y00292*
X00447Y00292*
X00446Y00292*
X00445Y00291*
X00445Y00291*
X00444Y0029*
X00443Y0029*
X00443Y00289*
X00442Y00289*
X00441Y00288*
X00441Y00288*
X00441Y00287*
X0044Y00286*
X0044Y00285*
X00439Y00285*
X00439Y00284*
X00439Y00283*
X00439Y00282*
X00439Y00281*
X00439Y00281*
X00439Y0028*
X00439Y00279*
X00439Y00278*
X00439Y00277*
X00439Y00277*
X0044Y00276*
X0044Y00275*
X00441Y00274*
X00441Y00274*
X00441Y00273*
X00442Y00272*
X00443Y00272*
X00443Y00271*
X00444Y00271*
X00445Y0027*
X00445Y0027*
X00446Y0027*
X00447Y00269*
X00448Y00269*
X00448Y00269*
X00449Y00269*
X0045Y00269*
X00451*
X00452Y00269*
X00453Y00269*
X00453Y00269*
X00454Y00269*
X00455Y0027*
X00456Y0027*
X00456Y0027*
X00457Y00271*
X00458Y00271*
X00458Y00272*
X00459Y00272*
X0046Y00273*
X0046Y00274*
X00461Y00274*
X00461Y00275*
X00461Y00276*
X00462Y00277*
X00462Y00277*
X00462Y00278*
X00462Y00279*
X00462Y0028*
X00462Y00281*
G54D32*
X0049Y00194D02*
Y0032D01*
X00104Y00194D02*
Y0032D01*
X00222Y00062D02*
X00237D01*
X00222Y00027D02*
X00237D01*
X00225Y00506D02*
Y00558D01*
X00324Y00572D02*
X00375D01*
X00402Y00686D02*
Y00718D01*
X00497Y00686D02*
Y00718D01*
G54D33*
X00135Y00697D02*
X00148D01*
X00141*
Y00677*
X00154Y0069D02*
Y00677D01*
Y00684*
X00158Y00687*
X00161Y0069*
X00164*
X00174Y00677D02*
X00181D01*
X00178*
Y0069*
X00174*
X00191Y00677D02*
Y0069D01*
X00194*
X00198Y00687*
Y00677*
Y00687*
X00201Y0069*
X00204Y00687*
Y00677*
X00211D02*
Y0069D01*
X00214*
X00218Y00687*
Y00677*
Y00687*
X00221Y0069*
X00224Y00687*
Y00677*
X00241D02*
X00234D01*
X00231Y0068*
Y00687*
X00234Y0069*
X00241*
X00244Y00687*
Y00684*
X00231*
X00251Y0069D02*
Y00677D01*
Y00684*
X00254Y00687*
X00258Y0069*
X00261*
X00145Y0003D02*
X0013D01*
Y00037*
X00132Y0004*
X00137*
X0014Y00037*
Y0003*
Y00035D02*
X00145Y0004D01*
Y00054D02*
Y00044D01*
X00135Y00054*
X00132*
X0013Y00052*
Y00047*
X00132Y00044*
X00382Y00702D02*
X0038Y007D01*
Y00695*
X00382Y00692*
X00392*
X00395Y00695*
Y007*
X00392Y00702*
X0038Y00717D02*
Y00707D01*
X00387*
X00385Y00712*
Y00714*
X00387Y00717*
X00392*
X00395Y00714*
Y00709*
X00392Y00707*
X0048Y00565D02*
X00477Y00567D01*
X00472*
X0047Y00565*
Y00555*
X00472Y00552*
X00477*
X0048Y00555*
X00485Y00552D02*
X00489D01*
X00487*
Y00567*
X00485Y00565*
G54D34*
X00325Y00665D02*
X00322Y00667D01*
X00317*
X00315Y00665*
Y00662*
X00317Y0066*
X00322*
X00325Y00657*
Y00655*
X00322Y00652*
X00317*
X00315Y00655*
X00337Y00652D02*
X00332D01*
X0033Y00655*
Y0066*
X00332Y00662*
X00337*
X00339Y0066*
Y00657*
X0033*
X00344Y00652D02*
Y00662D01*
X00352*
X00354Y0066*
Y00652*
X00359D02*
X00367D01*
X00369Y00655*
X00367Y00657*
X00362*
X00359Y0066*
X00362Y00662*
X00369*
X00374Y00652D02*
Y00662D01*
X00379Y00667*
X00384Y00662*
Y00652*
Y0066*
X00374*
X00132Y00507D02*
X0013Y00505D01*
Y005*
X00132Y00497*
X00135*
X00137Y005*
Y00505*
X0014Y00507*
X00142*
X00145Y00505*
Y005*
X00142Y00497*
X00145Y00519D02*
Y00514D01*
X00142Y00512*
X00137*
X00135Y00514*
Y00519*
X00137Y00522*
X0014*
Y00512*
X00145Y00527D02*
X00135D01*
Y00534*
X00137Y00537*
X00145*
Y00542D02*
Y00549D01*
X00142Y00552*
X0014Y00549*
Y00544*
X00137Y00542*
X00135Y00544*
Y00552*
X0013Y00557D02*
X00145D01*
Y00564*
X00142Y00567*
X0014*
X00137Y00564*
Y00557*
Y00564*
X00135Y00567*
X00132*
X0013Y00564*
Y00557*
M02*