%FSTAX23Y23*%
%MOIN*%
%SFA1B1*%

%IPPOS*%
%ADD33C,0.005000*%
%LNdrv8825_printplaat-1*%
%LPD*%
G54D33*
X00532Y0075D02*
X00567D01*
X0055Y00732D02*
Y00767D01*
X00532Y0065D02*
X00567D01*
X0055Y00632D02*
Y00667D01*
X00532Y0055D02*
X00567D01*
X0055Y00532D02*
Y00567D01*
X00532Y0045D02*
X00567D01*
X0055Y00432D02*
Y00467D01*
X00532Y0035D02*
X00567D01*
X0055Y00332D02*
Y00367D01*
X00532Y0025D02*
X00567D01*
X0055Y00232D02*
Y00267D01*
X00532Y0015D02*
X00567D01*
X0055Y00132D02*
Y00167D01*
X00532Y0005D02*
X00567D01*
X0055Y00032D02*
Y00067D01*
X00032Y0005D02*
X00067D01*
X0005Y00032D02*
Y00067D01*
X00032Y0015D02*
X00067D01*
X0005Y00132D02*
Y00167D01*
X00032Y0025D02*
X00067D01*
X0005Y00232D02*
Y00267D01*
X00032Y0035D02*
X00067D01*
X0005Y00332D02*
Y00367D01*
X00032Y0045D02*
X00067D01*
X0005Y00432D02*
Y00467D01*
X00032Y0055D02*
X00067D01*
X0005Y00532D02*
Y00567D01*
X00032Y0065D02*
X00067D01*
X0005Y00632D02*
Y00667D01*
X00032Y0075D02*
X00067D01*
X0005Y00732D02*
Y00767D01*
X00338Y00257D02*
X00351D01*
X00344Y00251D02*
Y00264D01*
X00291Y00257D02*
X00304D01*
X00297Y00251D02*
Y00264D01*
X00243Y00257D02*
X00256D01*
X0025Y00251D02*
Y00264D01*
X0049Y00117D02*
X00505D01*
X00497Y0011D02*
Y00125D01*
X00437Y00077D02*
X00452D01*
X00445Y0007D02*
Y00085D01*
X00462Y00207D02*
X00477D01*
X0047Y002D02*
Y00215D01*
X00197Y0045D02*
X00212D01*
X00205Y00442D02*
Y00457D01*
X00112Y00085D02*
X00127D01*
X0012Y00077D02*
Y00092D01*
X00226Y00472D02*
X00241D01*
X00233Y00465D02*
Y0048D01*
X00225Y0043D02*
X0024D01*
X00232Y00422D02*
Y00437D01*
X00285Y00462D02*
X003D01*
X00292Y00455D02*
Y0047D01*
X00277Y0043D02*
X00292D01*
X00285Y00422D02*
Y00437D01*
X00157Y00475D02*
X00172D01*
X00165Y00467D02*
Y00482D01*
X00435Y006D02*
X0045D01*
X00442Y00592D02*
Y00607D01*
X00466Y00582D02*
X00481D01*
X00473Y00575D02*
Y0059D01*
X0028Y0065D02*
X00295D01*
X00287Y00642D02*
Y00657D01*
X00362Y00752D02*
X00377D01*
X0037Y00745D02*
Y0076D01*
X00325Y00755D02*
X0034D01*
X00332Y00747D02*
Y00762D01*
X00345Y00715D02*
X0036D01*
X00352Y00707D02*
Y00722D01*
X0031Y00715D02*
X00325D01*
X00317Y00707D02*
Y00722D01*
X00195Y00725D02*
X0021D01*
X00202Y00717D02*
Y00732D01*
X0037Y0007D02*
X00385D01*
X00377Y00062D02*
Y00077D01*
X00402D02*
X00417D01*
X0041Y0007D02*
Y00085D01*
X00092Y00792D02*
X00107D01*
X001Y00785D02*
Y008D01*
X00302Y00085D02*
X00317D01*
X0031Y00077D02*
Y00092D01*
M02*